<svg width="128" height="128" viewBox="0 0 128 128" fill="none" xmlns="http://www.w3.org/2000/svg">
<path d="M64 16H26.6667C23.8377 16 21.1246 17.1238 19.1242 19.1242C17.1238 21.1246 16 23.8377 16 26.6667V101.333C16 104.162 17.1238 106.875 19.1242 108.876C21.1246 110.876 23.8377 112 26.6667 112H101.333C104.162 112 106.875 110.876 108.876 108.876C110.876 106.875 112 104.162 112 101.333V64M74.6667 80H48M48 80V53.3333M48 80L112 16M85.3333 16H112M112 16V42.6667" stroke="white" stroke-linecap="round" stroke-linejoin="round"/>
</svg>
