<svg width="124" height="126" viewBox="0 0 124 126" fill="none" xmlns="http://www.w3.org/2000/svg">
<path d="M0.5 9.10058C0.5 4.36923 4.3634 0.548525 9.09446 0.601105L89.7906 1.49795C94.5195 6.22481 98.8495 10.4519 103.558 15.0482C104.022 15.5017 104.491 15.9589 104.963 16.4205C110.241 21.5737 116.072 27.2808 123.5 34.7071V117C123.5 121.694 119.694 125.5 115 125.5H9C4.30558 125.5 0.5 121.694 0.5 117V9.10058Z" stroke="white"/>
<path d="M122.513 34.9786L89.7398 34.9786L89.7402 2.20574L122.513 34.9786Z" stroke="white"/>
<line x1="27" y1="34.5" x2="60" y2="34.5" stroke="white"/>
<line x1="27" y1="62.5" x2="97" y2="62.5" stroke="white"/>
<line x1="27" y1="90.5" x2="97" y2="90.5" stroke="white"/>
</svg>
