<svg width="132" height="144" viewBox="0 0 132 144" fill="none" xmlns="http://www.w3.org/2000/svg"><path d="M25.6612 112.5C10.681 101.182 1 83.2218 1 63C1 28.7583 28.7583 1 63 1C92.7827 1 117.661 21.9997 123.635 50" stroke="white" stroke-width="0.5"/><path d="M123.5 49.5L130.779 79.0431C131.4 81.5644 129.492 84 126.895 84H108.5V116.5C108.5 121.471 104.471 125.5 99.5 125.5H75.5V143.5" stroke="white" stroke-width="0.5"/><line x1="25.25" y1="112" x2="25.25" y2="144" stroke="white" stroke-width="0.5"/><path d="M44 45C45.5 41.6667 51.1 34 61.5 34C74.5 34 79 43 79 49.5C79 57 73.0962 61.9038 68.5 66.5C65.5 69.5 61.5 73.5 61.5 81.5" stroke="white" stroke-width="0.5"/><line x1="61.25" y1="94" x2="61.25" y2="102" stroke="white" stroke-width="0.5"/></svg>